<?xml version="1.0" encoding="UTF-8"?>
<svg version="1.1" xmlns="http://www.w3.org/2000/svg" width="240" height="240">
<path d="M0 0 C79.2 0 158.4 0 240 0 C240 79.2 240 158.4 240 240 C160.8 240 81.6 240 0 240 C0 160.8 0 81.6 0 0 Z " fill="#EDB110" transform="translate(0,0)"/>
<path d="M0 0 C9.67509653 -0.09277792 19.35003937 -0.16380435 29.02548409 -0.20724869 C33.51845159 -0.22810237 38.0111142 -0.25637917 42.50390625 -0.30175781 C46.84166323 -0.34529518 51.17912738 -0.3691538 55.51708603 -0.37950897 C57.17007938 -0.38688623 58.82305713 -0.40129247 60.47592545 -0.42292023 C62.79566021 -0.4520602 65.11419299 -0.45595174 67.43408203 -0.45410156 C68.75312531 -0.46298401 70.07216858 -0.47186646 71.43118286 -0.48101807 C76.77792295 0.23963488 79.80614207 2.64480991 83.3125 6.625 C86.32053629 10.85853256 86.144375 13.38700157 85.56640625 18.45703125 C84.65573054 22.54565116 83.09959399 24.17592548 80 27 C75.38862393 29.7815184 71.98890637 30.37169225 66.63354492 30.35644531 C65.9222644 30.35848969 65.21098389 30.36053406 64.47814941 30.36264038 C62.14532105 30.36562996 59.81321215 30.34723387 57.48046875 30.328125 C55.85476354 30.32506532 54.2290557 30.32319079 52.60334778 30.32244873 C49.20657222 30.31785791 45.81003536 30.30347364 42.41333008 30.28125 C38.0506232 30.25285574 33.68810314 30.24202594 29.32531261 30.2375679 C25.97370015 30.23342197 22.62212572 30.22361328 19.27053261 30.21169281 C17.66090513 30.20598241 16.05127398 30.20122626 14.44164085 30.19742584 C12.20085508 30.19058675 9.96022036 30.17696876 7.71948242 30.16113281 C6.4429631 30.15430481 5.16644379 30.14747681 3.85124207 30.14044189 C1 30 1 30 0 29 C-0.08775605 26.85441173 -0.10695219 24.70595579 -0.09765625 22.55859375 C-0.09443359 21.25341797 -0.09121094 19.94824219 -0.08789062 18.60351562 C-0.07953401 17.2148431 -0.07106905 15.82617123 -0.0625 14.4375 C-0.05748666 13.04492344 -0.05292347 11.65234519 -0.04882812 10.25976562 C-0.03699434 6.8398013 -0.0205088 3.41992156 0 0 Z " fill="#FEFDFB" transform="translate(71,87)"/>
<path d="M0 0 C1.11300224 -0.00065712 1.11300224 -0.00065712 2.24848938 -0.00132751 C4.68896248 0.00075426 7.12873944 0.02405567 9.5690918 0.04760742 C11.26588058 0.05320557 12.96267423 0.05747463 14.6594696 0.06047058 C19.11639898 0.07190218 23.57303313 0.10135474 28.02984619 0.13458252 C32.5812989 0.16531981 37.1327995 0.17898373 41.68432617 0.1940918 C50.60828371 0.22622615 59.53202254 0.27740204 68.45581055 0.34057617 C67.80315911 3.07174211 66.97940082 5.46790067 65.83081055 8.02807617 C64.07675722 12.63676529 64.23079086 16.59475914 65.45581055 21.34057617 C66.9169207 24.1395556 66.9169207 24.1395556 68.45581055 26.34057617 C68.45581055 27.33057617 68.45581055 28.32057617 68.45581055 29.34057617 C58.65034707 29.43334946 48.8449884 29.50437834 39.03917503 29.54782486 C34.48567553 29.5686795 29.9324768 29.59695811 25.37915039 29.64233398 C20.98303912 29.68586785 16.58721676 29.70972926 12.19090652 29.72008514 C10.51558511 29.72746302 8.8402791 29.74187046 7.16508102 29.7634964 C4.81421779 29.79263161 2.46454078 29.7965281 0.11352539 29.79467773 C-0.92010132 29.81624939 -0.92010132 29.81624939 -1.97460938 29.83825684 C-6.93207712 29.79617189 -9.71051312 28.41054431 -13.54418945 25.34057617 C-16.06587627 22.00979199 -17.34097464 18.4243885 -18.10668945 14.34057617 C-17.14115487 9.19105841 -14.62986877 4.90257299 -10.41682434 1.74736023 C-6.87382136 0.01228414 -3.8549342 -0.0600258 0 0 Z " fill="#FEFEFD" transform="translate(99.544189453125,49.659423828125)"/>
<path d="M0 0 C1.07911652 0.00565979 2.15823303 0.01131958 3.27005005 0.01715088 C6.70392926 0.03947403 10.13675066 0.08966483 13.5703125 0.140625 C15.90363072 0.16069516 18.23696536 0.17894503 20.5703125 0.1953125 C26.27900445 0.23932549 31.98708288 0.30619761 37.6953125 0.390625 C37.13274208 4.09636119 36.70885263 6.84999859 34.5703125 9.953125 C32.49579078 13.10381253 32.49579078 13.10381253 32.6953125 15.890625 C33.57300566 18.08485789 34.55835257 19.92823029 35.7578125 21.953125 C37.6953125 25.390625 37.6953125 25.390625 37.6953125 29.390625 C30.70300337 29.54313668 23.71112525 29.64799182 16.7175293 29.72021484 C14.3400876 29.75033159 11.9627565 29.79123432 9.58569336 29.84326172 C6.16231971 29.91629751 2.7404186 29.95013387 -0.68359375 29.9765625 C-1.74115372 30.00753021 -2.79871368 30.03849792 -3.88832092 30.07040405 C-10.00533089 30.07317479 -13.53070419 29.3886813 -17.98667908 25.07315063 C-21.15302997 21.03109259 -21.74939407 17.66883128 -21.6171875 12.63671875 C-20.96169031 7.92533273 -18.31328869 5.27599977 -14.86279297 2.24707031 C-10.308338 -0.681127 -5.23115477 -0.10375961 0 0 Z " fill="#FEFEFD" transform="translate(110.3046875,124.609375)"/>
<path d="M0 0 C6.11968997 0.1002201 9.58682634 0.47118263 14.3125 4.375 C18.0142105 8.66119111 19.58286967 12.75356404 19.3125 18.375 C17.56314057 23.6230783 14.81208631 26.3752758 10.3125 29.375 C7.3671875 29.87890625 7.3671875 29.87890625 4.3125 29.375 C2.15234375 26.84765625 2.15234375 26.84765625 0.25 23.4375 C-0.08580078 22.84646484 -0.42160156 22.25542969 -0.76757812 21.64648438 C-1.7566073 19.89812378 -2.72242984 18.13669891 -3.6875 16.375 C-4.22246094 15.48683594 -4.75742188 14.59867188 -5.30859375 13.68359375 C-7.68393648 9.70674515 -9.1886961 7.13636292 -8.6875 2.375 C-5.86691097 -0.44558903 -3.93532628 0.04182068 0 0 Z " fill="#FEFCF9" transform="translate(108.6875,161.625)"/>
</svg>
