<?xml version="1.0" encoding="UTF-8"?>
<svg version="1.1" xmlns="http://www.w3.org/2000/svg" width="225" height="225">
<path d="M0 0 C6.96903769 6.20893643 11.39924243 14.28281352 15.9375 22.3125 C17.41566245 24.89085624 18.90130401 27.4648793 20.38671875 30.0390625 C20.95170578 31.02150185 20.95170578 31.02150185 21.52810669 32.02378845 C24.1930638 36.64530038 26.92542164 41.22126799 29.70703125 45.7734375 C30.08999863 46.40019882 30.472966 47.02696014 30.86753845 47.67271423 C32.35055333 50.09564893 33.83606398 52.51699042 35.32833862 54.93423462 C48.6078389 76.44990344 48.6078389 76.44990344 47 85 C44.93661956 91.83566816 41.3025029 98.30850613 35.13549805 102.16636658 C26.53559503 106.08992227 17.69435275 105.5993467 8.4375 105.56640625 C6.63728516 105.57165074 4.83707307 105.57793023 3.03686523 105.58518982 C-0.72197472 105.59555467 -4.48043517 105.5910885 -8.23925781 105.57641602 C-13.03407923 105.55922262 -17.82770283 105.58275066 -22.62239075 105.61790562 C-26.33556925 105.63996064 -30.04846459 105.63841882 -33.76168823 105.6301403 C-35.52856766 105.62932544 -37.29546885 105.63609909 -39.06228638 105.65091133 C-58.72880099 105.7905593 -58.72880099 105.7905593 -66.88598633 98.25856018 C-71.31606969 93.59420697 -73.75146866 88.56815715 -74.375 82.125 C-73.982939 74.50159175 -70.89929173 68.61126802 -66.9609375 62.1875 C-66.14708269 60.84590046 -65.33370274 59.50401276 -64.52075195 58.16186523 C-64.10306549 57.47381805 -63.68537903 56.78577087 -63.2550354 56.07687378 C-61.25296071 52.76377487 -59.28455463 49.43098338 -57.31640625 46.09765625 C-56.53088577 44.76921375 -55.74524037 43.4408451 -54.95947266 42.11254883 C-54.37108612 41.11791122 -54.37108612 41.11791122 -53.77081299 40.10317993 C-42.11244582 20.41374835 -42.11244582 20.41374835 -37.125 12.3125 C-36.76349854 11.7151001 -36.40199707 11.1177002 -36.02954102 10.50219727 C-31.7746698 3.6771195 -26.52968687 -0.92636742 -19 -3.75 C-11.77341211 -4.65332349 -6.31680083 -3.54851233 0 0 Z " fill="#F6FCFA" transform="translate(126,62)"/>
<path d="M0 0 C6.96903769 6.20893643 11.39924243 14.28281352 15.9375 22.3125 C17.41566245 24.89085624 18.90130401 27.4648793 20.38671875 30.0390625 C20.95170578 31.02150185 20.95170578 31.02150185 21.52810669 32.02378845 C24.1930638 36.64530038 26.92542164 41.22126799 29.70703125 45.7734375 C30.08999863 46.40019882 30.472966 47.02696014 30.86753845 47.67271423 C32.35055333 50.09564893 33.83606398 52.51699042 35.32833862 54.93423462 C48.6078389 76.44990344 48.6078389 76.44990344 47 85 C44.93661956 91.83566816 41.3025029 98.30850613 35.13549805 102.16636658 C26.53559503 106.08992227 17.69435275 105.5993467 8.4375 105.56640625 C6.63728516 105.57165074 4.83707307 105.57793023 3.03686523 105.58518982 C-0.72197472 105.59555467 -4.48043517 105.5910885 -8.23925781 105.57641602 C-13.03407923 105.55922262 -17.82770283 105.58275066 -22.62239075 105.61790562 C-26.33556925 105.63996064 -30.04846459 105.63841882 -33.76168823 105.6301403 C-35.52856766 105.62932544 -37.29546885 105.63609909 -39.06228638 105.65091133 C-58.72880099 105.7905593 -58.72880099 105.7905593 -66.88598633 98.25856018 C-71.31606969 93.59420697 -73.75146866 88.56815715 -74.375 82.125 C-73.982939 74.50159175 -70.89929173 68.61126802 -66.9609375 62.1875 C-66.14708269 60.84590046 -65.33370274 59.50401276 -64.52075195 58.16186523 C-64.10306549 57.47381805 -63.68537903 56.78577087 -63.2550354 56.07687378 C-61.25296071 52.76377487 -59.28455463 49.43098338 -57.31640625 46.09765625 C-56.53088577 44.76921375 -55.74524037 43.4408451 -54.95947266 42.11254883 C-54.37108612 41.11791122 -54.37108612 41.11791122 -53.77081299 40.10317993 C-42.11244582 20.41374835 -42.11244582 20.41374835 -37.125 12.3125 C-36.76349854 11.7151001 -36.40199707 11.1177002 -36.02954102 10.50219727 C-31.7746698 3.6771195 -26.52968687 -0.92636742 -19 -3.75 C-11.77341211 -4.65332349 -6.31680083 -3.54851233 0 0 Z M-20.69824219 10.22070312 C-22.51096645 13.10366659 -24.20534785 16.03185609 -25.875 19 C-27.18360732 21.2546546 -28.49355632 23.50853089 -29.8046875 25.76171875 C-30.1422406 26.34733078 -30.4797937 26.93294281 -30.82757568 27.53630066 C-34.76660988 34.36699613 -38.88724307 41.08556154 -43 47.8125 C-47.00656287 54.37484277 -50.99600171 60.94759967 -54.921875 67.55859375 C-55.48487305 68.50404053 -56.04787109 69.4494873 -56.62792969 70.42358398 C-58.69916198 74.312857 -59.29559995 76.56600078 -59 81 C-57.28210913 85.2986138 -55.37652206 88.16647741 -51.38269043 90.58485413 C-47.53180322 92.19586975 -44.26149574 92.43012836 -40.16210938 92.40405273 C-39.4003389 92.41091599 -38.63856842 92.41777924 -37.85371399 92.42485046 C-35.35019996 92.44306529 -32.8473157 92.4392892 -30.34375 92.43359375 C-28.59549761 92.43815768 -26.84724702 92.44346388 -25.09899902 92.44947815 C-21.44076229 92.45839846 -17.78274399 92.45599796 -14.12451172 92.44604492 C-9.44368297 92.43454861 -4.76360788 92.45478207 -0.08287811 92.48396206 C3.52545942 92.50233303 7.13361656 92.50202997 10.74198914 92.49632454 C12.46751463 92.49617148 14.19305247 92.50220339 15.91853333 92.51461601 C18.33353613 92.52954403 20.74714918 92.51883749 23.16210938 92.50170898 C24.223675 92.51621094 24.223675 92.51621094 25.3066864 92.53100586 C31.18404332 92.44399826 34.60636541 90.22855634 38.8125 86.3125 C40.67051597 82.69425837 41.0367448 79.04657435 41 75 C40.00408811 72.34525327 39.11967361 70.51603394 37.625 68.1875 C37.03464966 67.20438843 37.03464966 67.20438843 36.43237305 66.20141602 C35.51304816 64.67805572 34.58237084 63.1615134 33.64306641 61.65039062 C31.77131802 58.63111863 29.93751395 55.59039826 28.10546875 52.546875 C25.58040807 48.35475572 23.04101153 44.17196358 20.4838562 39.99934387 C17.27950672 34.77064663 14.12080078 29.52243926 11.03515625 24.22265625 C10.106427 22.6449646 10.106427 22.6449646 9.15893555 21.03540039 C8.0022453 19.06726986 6.85833004 17.09155329 5.72973633 15.10717773 C2.46019598 9.58727289 -0.0490815 6.5443357 -6 4 C-12.11460208 2.98089965 -17.00839034 5.39567547 -20.69824219 10.22070312 Z " fill="#07B977" transform="translate(126,62)"/>
<path d="M0 0 C5.16686646 3.16269731 7.57546938 7.82153814 10.5 12.9375 C11.54459749 14.73569997 12.59155632 16.53252985 13.640625 18.328125 C14.18396484 19.25818359 14.72730469 20.18824219 15.28710938 21.14648438 C17.01986052 24.03308578 18.82830665 26.85493371 20.671875 29.671875 C21.26935547 30.59492432 21.86683594 31.51797363 22.48242188 32.46899414 C23.63484714 34.2414051 24.80219749 36.00422742 25.98632812 37.75561523 C29.42639986 43.10408259 31.32483275 47.57649215 30 54 C28.12379387 56.50160818 26.76108697 57.61945652 24 59 C22.27051431 59.11598365 20.53668089 59.16959302 18.8034668 59.19287109 C17.17618904 59.21696548 17.17618904 59.21696548 15.51603699 59.24154663 C10.55244515 59.28592603 5.58898788 59.32705826 0.62524414 59.35009766 C-1.99463783 59.36666582 -4.61447445 59.39396669 -7.23413086 59.43212891 C-11.00658682 59.48681941 -14.77798254 59.50876071 -18.55078125 59.5234375 C-20.30724724 59.55744156 -20.30724724 59.55744156 -22.09919739 59.59213257 C-30.20766594 59.57101472 -30.20766594 59.57101472 -34.21557617 56.68261719 C-36.47410978 53.2872461 -37 51.07647431 -37 47 C-35.875 44.1328125 -35.875 44.1328125 -34 41.125 C-33.65477295 40.55837646 -33.3095459 39.99175293 -32.95385742 39.40795898 C-32.13960898 38.07245455 -31.31754606 36.74169804 -30.48974609 35.41455078 C-28.72565206 32.55534233 -27.01265637 29.66811485 -25.30078125 26.77734375 C-8.95502865 -0.75890073 -8.95502865 -0.75890073 0 0 Z " fill="#04B875" transform="translate(125,81)"/>
<path d="M0 0 C3.67798371 0.59806582 3.9312949 0.90643677 6.33203125 4.17578125 C7.1721156 5.54664845 7.99821753 6.92615133 8.8125 8.3125 C9.46182495 9.39096191 9.46182495 9.39096191 10.12426758 10.49121094 C11.00376904 11.95601729 11.87806198 13.42396379 12.74707031 14.89501953 C13.88713547 16.81038232 15.05613421 18.70274633 16.2421875 20.58984375 C16.88414062 21.63269531 17.52609375 22.67554688 18.1875 23.75 C18.75855469 24.67296875 19.32960937 25.5959375 19.91796875 26.546875 C21 29 21 29 20.73828125 31.265625 C20 33 20 33 19 34 C16.3337397 34.08855161 13.69352886 34.11524673 11.02734375 34.09765625 C10.22970108 34.0962413 9.43205841 34.09482635 8.61024475 34.09336853 C6.05262565 34.08775316 3.49509282 34.07519812 0.9375 34.0625 C-0.79231645 34.05748698 -2.52213426 34.05292373 -4.25195312 34.04882812 C-8.50133553 34.03777875 -12.75065312 34.02050386 -17 34 C-17.77580986 31.24701944 -18.20947815 29.57443652 -17.21484375 26.84692383 C-16.58255859 25.787677 -16.58255859 25.787677 -15.9375 24.70703125 C-15.4731958 23.91594971 -15.0088916 23.12486816 -14.53051758 22.30981445 C-14.02544678 21.48570068 -13.52037598 20.66158691 -13 19.8125 C-12.49686279 18.96840576 -11.99372559 18.12431152 -11.4753418 17.25463867 C-7.90309885 11.3188064 -4.17029199 5.53666752 0 0 Z " fill="#FBFDFD" transform="translate(125,93)"/>
<path d="M0 0 C-0.33 0.99 -0.66 1.98 -1 3 C-1.99 3.33 -2.98 3.66 -4 4 C-5.69882448 6.49759982 -5.69882448 6.49759982 -7 9 C-7.66 8.67 -8.32 8.34 -9 8 C-8.21366078 6.85050412 -7.42073742 5.70551011 -6.625 4.5625 C-6.18414062 3.92441406 -5.74328125 3.28632812 -5.2890625 2.62890625 C-3.63708041 0.54140161 -2.66927652 0 0 0 Z " fill="#26BC83" transform="translate(120,81)"/>
<path d="M0 0 C0 3 0 3 -2.5 5.6875 C-3.325 6.450625 -4.15 7.21375 -5 8 C-5.66 7.67 -6.32 7.34 -7 7 C-4.78071806 4.09197539 -3.07030857 2.04687238 0 0 Z " fill="#16B97D" transform="translate(99,62)"/>
</svg>
