<?xml version="1.0" encoding="UTF-8"?>
<svg version="1.1" xmlns="http://www.w3.org/2000/svg" width="225" height="225">
<path d="M0 0 C14.46471991 -0.11699241 28.92936606 -0.20473289 43.39446259 -0.25906086 C50.1114436 -0.28480236 56.82813 -0.31987426 63.54492188 -0.37719727 C70.02884543 -0.43158339 76.51246321 -0.461435 82.99659729 -0.47438622 C85.46851921 -0.48361406 87.94042468 -0.50163397 90.41221619 -0.52865028 C93.87869231 -0.5650264 97.34391014 -0.56994149 100.81054688 -0.56762695 C101.82906738 -0.58560333 102.84758789 -0.60357971 103.89697266 -0.62210083 C111.62973434 -0.56635222 116.31373895 1.64687845 121.98828125 6.80859375 C122.42527344 7.34613281 122.86226563 7.88367188 123.3125 8.4375 C123.76238281 8.97246094 124.21226562 9.50742188 124.67578125 10.05859375 C129.09219068 16.53338869 129.49148916 21.65094697 129.4375 29.3125 C129.45748047 30.30701172 129.47746094 31.30152344 129.49804688 32.32617188 C129.49226494 41.13205569 127.25312533 48.56295922 121 55 C114.30852719 60.09133801 108.45653942 61.29981836 100.29174805 61.29052734 C99.43726074 61.29724457 98.58277344 61.30396179 97.70239258 61.31088257 C94.88877482 61.32981791 92.07539619 61.33378457 89.26171875 61.3359375 C87.29645186 61.34236876 85.33118592 61.34909736 83.36592102 61.35610962 C79.24954001 61.36807139 75.13324286 61.3717916 71.0168457 61.37060547 C65.75793625 61.3704024 60.4995679 61.39769733 55.24078655 61.43214989 C51.1819871 61.45445466 47.12331711 61.4584419 43.06446266 61.45738602 C41.12649484 61.45973686 39.18852318 61.46853109 37.25061607 61.48405075 C34.53217726 61.50378237 31.81489545 61.49784476 29.09643555 61.48583984 C28.30600357 61.49707886 27.51557159 61.50831787 26.70118713 61.51989746 C18.82892982 61.4321435 11.68386731 58.5214711 6 53 C0.66536244 45.98876206 -0.29706728 39.98050346 -0.1953125 31.4453125 C-0.1924826 30.54376434 -0.18965271 29.64221619 -0.18673706 28.71334839 C-0.17559439 25.85042724 -0.1505008 22.98782566 -0.125 20.125 C-0.11496255 18.17708787 -0.10583804 16.22917081 -0.09765625 14.28125 C-0.07567443 9.5207113 -0.0411855 4.76040973 0 0 Z " fill="#00BB01" transform="translate(48,116)"/>
<path d="M0 0 C1.28173096 -0.01007584 1.28173096 -0.01007584 2.58935547 -0.02035522 C5.40297323 -0.03929056 8.21635185 -0.04325723 11.0300293 -0.04541016 C12.99529619 -0.05184141 14.96056212 -0.05857002 16.92582703 -0.06558228 C21.04220803 -0.07754405 25.15850519 -0.08126425 29.27490234 -0.08007812 C34.5338118 -0.07987505 39.79218015 -0.10716999 45.05096149 -0.14162254 C49.10976095 -0.16392732 53.16843094 -0.16791456 57.22728539 -0.16685867 C59.1652532 -0.16920951 61.10322487 -0.17800375 63.04113197 -0.19352341 C65.75957079 -0.21325503 68.4768526 -0.20731741 71.1953125 -0.1953125 C71.98574448 -0.20655151 72.77617645 -0.21779053 73.59056091 -0.22937012 C81.46281822 -0.14161615 88.60788074 2.76905624 94.29174805 8.29052734 C99.81427146 15.70648736 100.67750573 21.46911425 100.72924805 30.47802734 C100.76211914 31.46867187 100.79499023 32.45931641 100.82885742 33.47998047 C100.88965462 41.90868233 98.67488624 48.22293923 93.2644043 54.72802734 C92.63405273 55.24365234 92.00370117 55.75927734 91.35424805 56.29052734 C90.72647461 56.82677734 90.09870117 57.36302734 89.4519043 57.91552734 C83.42900609 61.74927087 77.40396887 61.56678352 70.51293945 61.51757812 C68.90228607 61.5180162 68.90228607 61.5180162 67.25909424 61.51846313 C63.72041663 61.5170731 60.18195124 61.50152701 56.64331055 61.48583984 C54.18565994 61.48210856 51.72800785 61.47926213 49.27035522 61.4772644 C42.80950801 61.46963706 36.34875106 61.44999617 29.88793945 61.42785645 C23.29208599 61.40737872 16.6962179 61.39825856 10.1003418 61.38818359 C-2.83589458 61.36674954 -15.77206846 61.33301011 -28.70825195 61.29052734 C-28.80772521 55.61634332 -28.88000444 49.94267584 -28.92797852 44.26782227 C-28.94799439 42.34064889 -28.97521578 40.41353548 -29.01000977 38.48657227 C-29.05897236 35.70362482 -29.08132112 32.92148579 -29.09887695 30.13818359 C-29.11952209 29.28781021 -29.14016724 28.43743683 -29.16143799 27.56129456 C-29.16444609 19.39525679 -26.46041141 12.21186797 -20.70825195 6.29052734 C-14.01677914 1.19918934 -8.16479137 -0.00929102 0 0 Z " fill="#013AFD" transform="translate(76.708251953125,47.70947265625)"/>
<path d="M0 0 C0 3.77910478 -0.99703962 4.46106101 -3.5 7.1875 C-4.1496875 7.90292969 -4.799375 8.61835937 -5.46875 9.35546875 C-5.9740625 9.89816406 -6.479375 10.44085938 -7 11 C-7.66 10.67 -8.32 10.34 -9 10 C-8.06862408 8.70391053 -7.1296434 7.41328368 -6.1875 6.125 C-5.66542969 5.40570313 -5.14335938 4.68640625 -4.60546875 3.9453125 C-3 2 -3 2 0 0 Z " fill="#1845F4" transform="translate(59,52)"/>
</svg>
