<?xml version="1.0" encoding="UTF-8"?>
<svg version="1.1" xmlns="http://www.w3.org/2000/svg" width="512" height="512">
<path d="M0 0 C168.96 0 337.92 0 512 0 C512 168.96 512 337.92 512 512 C343.04 512 174.08 512 0 512 C0 343.04 0 174.08 0 0 Z " fill="#490221" transform="translate(0,0)"/>
<path d="M0 0 C1.11346802 0.00100708 2.22693604 0.00201416 3.37414551 0.00305176 C7.51115965 0.00826157 11.64815905 0.02222277 15.78515625 0.03515625 C29.67609375 0.06609375 29.67609375 0.06609375 43.84765625 0.09765625 C43.84765625 19.23765625 43.84765625 38.37765625 43.84765625 58.09765625 C18.59765625 58.47265625 18.59765625 58.47265625 10.70214844 58.57568359 C8.59959732 58.6109422 6.49705727 58.64686914 4.39453125 58.68359375 C2.8024585 58.70063354 2.8024585 58.70063354 1.17822266 58.71801758 C-22.9182861 59.1765252 -46.04127473 66.95237942 -64.15234375 83.09765625 C-64.91804688 83.73316406 -65.68375 84.36867188 -66.47265625 85.0234375 C-79.21498918 95.80042756 -88.20465604 109.85624053 -92.81103516 125.85595703 C-94.05905279 129.7225744 -94.8504811 130.93898486 -98.50390625 132.859375 C-99.70789063 133.26800781 -100.911875 133.67664063 -102.15234375 134.09765625 C-109.09373721 137.91987861 -115.04455302 142.51513232 -120.8203125 147.91796875 C-122.88086111 149.84390865 -124.99108364 151.66222193 -127.15234375 153.47265625 C-137.77237948 162.78922683 -145.82424632 173.88580495 -153.08984375 185.91015625 C-154.11078125 187.48796875 -154.11078125 187.48796875 -155.15234375 189.09765625 C-155.81234375 189.09765625 -156.47234375 189.09765625 -157.15234375 189.09765625 C-157.88564427 150.93500482 -157.22048756 114.88258984 -137.15234375 81.09765625 C-136.49234375 81.09765625 -135.83234375 81.09765625 -135.15234375 81.09765625 C-134.91257813 80.06769531 -134.6728125 79.03773438 -134.42578125 77.9765625 C-133.28458313 74.01025175 -131.36097001 71.27514064 -128.77734375 68.03515625 C-128.33890137 67.48424316 -127.90045898 66.93333008 -127.44873047 66.36572266 C-126.03055204 64.5978564 -124.59354158 62.84679001 -123.15234375 61.09765625 C-122.43498047 60.2156958 -122.43498047 60.2156958 -121.703125 59.31591797 C-106.7083872 40.94937418 -87.50533886 23.88042012 -65.15234375 15.09765625 C-63.21263465 14.16473551 -61.27532817 13.22681042 -59.33984375 12.28515625 C-46.76196117 6.47780055 -33.79896111 3.27640422 -20.15234375 1.09765625 C-19.19392578 0.92274658 -18.23550781 0.74783691 -17.24804688 0.56762695 C-11.53492445 -0.23727411 -5.7560334 -0.02464404 0 0 Z " fill="#D45C6E" transform="translate(313.15234375,94.90234375)"/>
<path d="M0 0 C0 19.14 0 38.28 0 58 C-7.92 58.495 -7.92 58.495 -16 59 C-19.37724828 59.64755498 -22.48190774 60.29971139 -25.75 61.25 C-26.54728516 61.47179932 -27.34457031 61.69359863 -28.16601562 61.92211914 C-43.14107448 66.21304947 -56.13755744 72.90896245 -68 83 C-68.66515625 83.51949219 -69.3303125 84.03898437 -70.015625 84.57421875 C-88.17048617 99.22356811 -98.14981284 121.95338006 -102.421875 144.33203125 C-103 147 -103 147 -104 148 C-104.12209924 149.41117702 -104.17770872 150.82820459 -104.20532227 152.24438477 C-104.22550415 153.15788696 -104.24568604 154.07138916 -104.26647949 155.01257324 C-104.28295532 155.97908813 -104.29943115 156.94560303 -104.31640625 157.94140625 C-104.33505737 158.82501831 -104.3537085 159.70863037 -104.3729248 160.61901855 C-104.44144552 163.93340649 -104.5014515 167.24796602 -104.5625 170.5625 C-104.706875 177.966875 -104.85125 185.37125 -105 193 C-123.48 193 -141.96 193 -161 193 C-161.85970087 121.85975307 -161.85970087 121.85975307 -146 90 C-145.34 90 -144.68 90 -144 90 C-143.649375 88.741875 -143.29875 87.48375 -142.9375 86.1875 C-137.98184461 71.48113377 -125.48116689 58.1350015 -115 47 C-114.45214844 46.39929688 -113.90429688 45.79859375 -113.33984375 45.1796875 C-84.40212919 14.60667211 -41.20344578 0 0 0 Z " fill="#CD526A" transform="translate(317,223)"/>
<path d="M0 0 C0.66 0.33 1.32 0.66 2 1 C-5.92 8.92 -13.84 16.84 -22 25 C-22 20.89669076 -19.86603161 19.26267147 -17.1875 16.4375 C-16.69918701 15.91317383 -16.21087402 15.38884766 -15.70776367 14.84863281 C-10.7450013 9.59329027 -5.43973757 4.75582472 0 0 Z " fill="#B9495E" transform="translate(214,259)"/>
<path d="M0 0 C0.66 0.33 1.32 0.66 2 1 C-5.26 8.26 -12.52 15.52 -20 23 C-20.66 22.67 -21.32 22.34 -22 22 C-19.65213939 19.45244671 -17.29557543 16.91309815 -14.9375 14.375 C-13.95233398 13.30572266 -13.95233398 13.30572266 -12.94726562 12.21484375 C-8.85219311 7.81717967 -4.63719168 3.82312032 0 0 Z " fill="#B6455D" transform="translate(214,131)"/>
<path d="M0 0 C0.66 0.33 1.32 0.66 2 1 C-3.61 6.61 -9.22 12.22 -15 18 C-15.66 17.67 -16.32 17.34 -17 17 C-11.6749489 10.87372593 -6.27309565 5.16205691 0 0 Z " fill="#6A1633" transform="translate(252,174)"/>
<path d="M0 0 C0.66 0.33 1.32 0.66 2 1 C-2.95 5.95 -7.9 10.9 -13 16 C-13.66 15.67 -14.32 15.34 -15 15 C-10.39863498 9.46398272 -5.53601728 4.60136502 0 0 Z " fill="#64122F" transform="translate(252,302)"/>
</svg>
