<?xml version="1.0" encoding="UTF-8"?>
<svg version="1.1" xmlns="http://www.w3.org/2000/svg" width="200" height="200">
<path d="M0 0 C1.60485471 1.37103482 3.18770435 2.76815951 4.75 4.1875 C6.08804688 5.38632812 6.08804688 5.38632812 7.453125 6.609375 C25.23463897 23.39750831 37.02117157 47.73628136 37.953125 72.30859375 C38.43417185 98.88873001 30.90543796 124.31042568 12.75 144.1875 C12.06421875 144.95449219 11.3784375 145.72148437 10.671875 146.51171875 C-5.74102072 163.92762476 -29.34250619 175.61664019 -53.38671875 176.36206055 C-57.13379064 176.42903209 -60.87927045 176.42414213 -64.62670898 176.39331055 C-66.97194993 176.37472702 -69.31680153 176.37280371 -71.66210938 176.37304688 C-73.15364928 176.36814197 -74.64518651 176.3623182 -76.13671875 176.35546875 C-76.83762131 176.35435593 -77.53852386 176.3532431 -78.26066589 176.35209656 C-83.13383813 176.30366187 -83.13383813 176.30366187 -84.25 175.1875 C-84.35119282 172.10837441 -84.38968327 169.05214501 -84.3828125 165.97265625 C-84.38376923 165.04658066 -84.38472595 164.12050507 -84.38571167 163.16636658 C-84.38639362 161.20343966 -84.38453832 159.2405105 -84.38037109 157.27758789 C-84.37502907 154.26638737 -84.38031247 151.25533643 -84.38671875 148.24414062 C-84.38605785 146.3411455 -84.38477645 144.43815047 -84.3828125 142.53515625 C-84.38483673 141.62991714 -84.38686096 140.72467804 -84.38894653 139.79200745 C-84.38421829 138.5357682 -84.38421829 138.5357682 -84.37939453 137.25415039 C-84.37859894 136.51548233 -84.37780334 135.77681427 -84.37698364 135.01576233 C-84.25 133.1875 -84.25 133.1875 -83.25 131.1875 C-82.45529297 131.1781543 -81.66058594 131.16880859 -80.84179688 131.15917969 C-49.91972469 130.98634223 -49.91972469 130.98634223 -23.5625 116.0625 C-16.85869976 108.89024143 -11.51414491 99.76801401 -9.25 90.1875 C-9.06953125 89.424375 -8.8890625 88.66125 -8.703125 87.875 C-6.05575262 72.17334314 -10.22958303 58.11366453 -19.25 45.1875 C-26.87783517 35.33130849 -39.8997447 27.8612846 -52.25 26.1875 C-69.0805236 24.81393454 -82.8027501 29.04381501 -95.9375 39.875 C-106.16527101 49.3980306 -111.71737991 62.52457465 -112.3525238 76.4324913 C-112.40507707 79.03454558 -112.42758612 81.63523347 -112.43945312 84.23779297 C-112.44774643 85.22231949 -112.45603973 86.20684601 -112.46458435 87.22120667 C-112.48191548 89.34806635 -112.49710087 91.47494438 -112.51036072 93.60183334 C-112.53146044 96.96321237 -112.55847264 100.32449816 -112.58703613 103.68582153 C-112.65671454 112.02619764 -112.7164205 120.36663937 -112.77606201 128.70709229 C-112.82689947 135.76970684 -112.88166267 142.8322687 -112.94187927 149.89480972 C-112.96852982 153.21475939 -112.98929046 156.53471385 -113.0098877 159.85470581 C-113.0264798 161.87433105 -113.04335067 163.89395403 -113.06054688 165.91357422 C-113.06473129 166.84340622 -113.06891571 167.77323822 -113.07322693 168.73124695 C-113.13614399 175.07364399 -113.13614399 175.07364399 -114.25 176.1875 C-115.59544327 176.28535341 -116.94592563 176.31547985 -118.29492188 176.31689453 C-119.15251099 176.32004669 -120.0101001 176.32319885 -120.89367676 176.32644653 C-121.82595093 176.3244223 -122.7582251 176.32239807 -123.71875 176.3203125 C-125.14471497 176.32174759 -125.14471497 176.32174759 -126.5994873 176.32321167 C-128.61368882 176.32389357 -130.62789252 176.32203862 -132.64208984 176.31787109 C-135.73670355 176.31252298 -138.8311721 176.31781577 -141.92578125 176.32421875 C-143.87760449 176.32355797 -145.82942764 176.32227681 -147.78125 176.3203125 C-149.17966125 176.32334885 -149.17966125 176.32334885 -150.60632324 176.32644653 C-151.46391235 176.32329437 -152.32150146 176.32014221 -153.20507812 176.31689453 C-153.96373169 176.31609894 -154.72238525 176.31530334 -155.50402832 176.31448364 C-157.25 176.1875 -157.25 176.1875 -158.25 175.1875 C-158.36143176 172.06084875 -158.40740974 168.95609266 -158.41113281 165.82861328 C-158.41609772 164.84461548 -158.42106262 163.86061768 -158.42617798 162.84680176 C-158.44086445 159.56713166 -158.4476183 156.28751019 -158.453125 153.0078125 C-158.4588786 150.72305297 -158.46463631 148.43829345 -158.47039795 146.15353394 C-158.48093136 141.34307632 -158.48675623 136.5326355 -158.49023438 131.72216797 C-158.49567271 125.60665665 -158.51958948 119.49137326 -158.54820633 113.37593269 C-158.56700431 108.64333495 -158.57204771 103.9107897 -158.57357025 99.17815781 C-158.57656739 96.92748669 -158.58449438 94.67681583 -158.59775543 92.42618179 C-158.77832531 59.37418717 -152.35860751 32.16355765 -129 7.5 C-94.34649748 -25.69184337 -38.36558733 -29.57726163 0 0 Z " fill="#E31B38" transform="translate(160.25,21.8125)"/>
<path d="M0 0 C5.71629284 5.15860574 9.94264155 9.65629163 10.8125 17.59375 C11.19329879 25.3049254 8.82175165 30.68155984 4.8125 37.125 C-1.2233702 42.99320713 -8.41524539 44.45054066 -16.61328125 44.41015625 C-17.77021484 44.40693359 -18.92714844 44.40371094 -20.11914062 44.40039062 C-21.31732422 44.39201172 -22.51550781 44.38363281 -23.75 44.375 C-24.96751953 44.37048828 -26.18503906 44.36597656 -27.43945312 44.36132812 C-30.43885226 44.34956578 -33.43815089 44.33312826 -36.4375 44.3125 C-36.51212728 40.02583264 -36.56632508 35.73951793 -36.60229492 31.45239258 C-36.61730313 29.99659632 -36.63771633 28.54084468 -36.66381836 27.08520508 C-36.70055676 24.98247211 -36.7173056 22.88034115 -36.73046875 20.77734375 C-36.7461792 19.515271 -36.76188965 18.25319824 -36.77807617 16.95288086 C-36.14743821 10.21206173 -33.56096024 5.81114802 -28.4375 1.3125 C-27.839375 0.755625 -27.24125 0.19875 -26.625 -0.375 C-18.38638246 -5.31817053 -8.38229684 -4.11494572 0 0 Z " fill="#E31B38" transform="translate(113.4375,79.6875)"/>
</svg>
